<svg id="Layer_1" data-name="Layer 1" xmlns="http://www.w3.org/2000/svg" viewBox="0 0 542.43 85.06"><defs><style>.cls-1{fill:#1d3765;}.cls-2{fill:#0b74bb;}</style></defs>
    <path class="cls-1" d="M23,65.85a24.5,24.5,0,0,1-10.34-2.07,16,16,0,0,1-7.06-6.1A17.93,17.93,0,0,1,3,47.89V46h7.91v1.85c0,3.65,1.09,6.38,3.29,8.2A13.21,13.21,0,0,0,23,58.83q5.55,0,8.35-2.33a7.47,7.47,0,0,0,2.81-6,5.88,5.88,0,0,0-1.33-4A9.07,9.07,0,0,0,29,44a48.76,48.76,0,0,0-5.84-1.74l-2.73-.66a43.94,43.94,0,0,1-8.61-2.92,14,14,0,0,1-5.65-4.62,12.69,12.69,0,0,1-2-7.39,13.36,13.36,0,0,1,2.26-7.83,14.63,14.63,0,0,1,6.24-5,23,23,0,0,1,9.39-1.77,24,24,0,0,1,9.64,1.85,15.12,15.12,0,0,1,6.69,5.47,15.94,15.94,0,0,1,2.43,9.08v2.66H33V28.45a9.64,9.64,0,0,0-1.37-5.39,7.9,7.9,0,0,0-3.8-3,15.52,15.52,0,0,0-5.69-1q-4.74,0-7.36,2a6.38,6.38,0,0,0-2.62,5.43,6.27,6.27,0,0,0,1.14,3.88,8.21,8.21,0,0,0,3.37,2.47,29.86,29.86,0,0,0,5.54,1.7l2.73.67A45.8,45.8,0,0,1,33.77,38a15.28,15.28,0,0,1,6.06,4.7,12.32,12.32,0,0,1,2.22,7.61,14.29,14.29,0,0,1-2.33,8.13,15.55,15.55,0,0,1-6.61,5.43A24.31,24.31,0,0,1,23,65.85Z"/><path class="cls-1" d="M64.29,64.81a7,7,0,0,1-5.28-2,7.26,7.26,0,0,1-2-5.32V34.81H47V28.38h10v-12h7.61v12H75.52v6.43H64.66V56.17c0,1.47.69,2.21,2.07,2.21h7.61v6.43Z"/><path class="cls-1" d="M98.43,65.48A14.72,14.72,0,0,1,91,63.63a13,13,0,0,1-5.1-5.25,16.78,16.78,0,0,1-1.85-8.13V28.38H91.7V49.74q0,4.73,2.37,7A9.17,9.17,0,0,0,100.65,59a9.62,9.62,0,0,0,7.5-3.14q2.84-3.13,2.84-9V28.38h7.61V64.81h-7.46V59.34H110a11.29,11.29,0,0,1-3.7,4.18C104.49,64.82,101.88,65.48,98.43,65.48Z"/><path class="cls-1" d="M144.91,65.85a16.33,16.33,0,0,1-14.52-8.61,20.48,20.48,0,0,1-2.33-10.09V46a20.84,20.84,0,0,1,2.29-10,16.08,16.08,0,0,1,6.14-6.43,16.5,16.5,0,0,1,8.42-2.21,17.37,17.37,0,0,1,6,.88,12.38,12.38,0,0,1,3.95,2.26,10.88,10.88,0,0,1,2.37,2.84h1.18V13.08H166V64.81h-7.46V59.64h-1.19a13.67,13.67,0,0,1-4.24,4.28Q150.23,65.85,144.91,65.85Zm2.14-6.65A11.13,11.13,0,0,0,155.22,56q3.21-3.18,3.21-9.09v-.67q0-5.84-3.17-9a12,12,0,0,0-16.3,0q-3.21,3.18-3.21,9v.67q0,5.91,3.21,9.09A11,11,0,0,0,147.05,59.2Z"/><path class="cls-1" d="M181.41,79.59V72.94h20.33c1.37,0,2.07-.74,2.07-2.22V59.49h-1.19a9.7,9.7,0,0,1-2,2.85,10.37,10.37,0,0,1-3.66,2.25,16.1,16.1,0,0,1-5.76.89,14.72,14.72,0,0,1-7.39-1.85,13,13,0,0,1-5.1-5.25,16.62,16.62,0,0,1-1.85-8.05V28.38h7.61V49.74q0,4.73,2.37,7A9.17,9.17,0,0,0,193.39,59a9.69,9.69,0,0,0,7.5-3.1c1.89-2.07,2.84-5.07,2.84-9V28.38h7.61V72.27a7.27,7.27,0,0,1-2,5.33,7.14,7.14,0,0,1-5.35,2Z"/><path class="cls-1" d="M260.41,65.85q-9.47,0-15-5.36T239.87,45V32.89q0-10.12,5.54-15.48t15-5.36q9.31,0,14.37,5.17t5.06,14.12v.44h-7.9v-.67a12.72,12.72,0,0,0-2.85-8.57c-1.89-2.21-4.79-3.32-8.68-3.32s-7,1.19-9.24,3.58-3.32,5.7-3.32,9.94V45.15q0,6.29,3.32,9.91t9.24,3.62q5.83,0,8.68-3.36a12.77,12.77,0,0,0,2.85-8.54V45.52h7.9v1q0,8.94-5.06,14.11T260.41,65.85Z"/><path class="cls-1" d="M306,65.85a20.43,20.43,0,0,1-9.71-2.26,16.51,16.51,0,0,1-6.69-6.46,19.55,19.55,0,0,1-2.44-10V46a19.35,19.35,0,0,1,2.44-9.94,16.77,16.77,0,0,1,6.69-6.46A20.1,20.1,0,0,1,306,27.35a20.35,20.35,0,0,1,9.76,2.29,16.78,16.78,0,0,1,6.72,6.46A19.35,19.35,0,0,1,324.92,46v1.11a19.55,19.55,0,0,1-2.44,10,16.52,16.52,0,0,1-6.72,6.46A20.69,20.69,0,0,1,306,65.85Zm0-6.8a10.91,10.91,0,0,0,8.17-3.22q3.13-3.21,3.14-8.9v-.67c0-3.79-1-6.76-3.1-8.9a11.92,11.92,0,0,0-16.3,0q-3.14,3.21-3.14,8.9v.67q0,5.68,3.14,8.9A10.79,10.79,0,0,0,306,59.05Z"/><path class="cls-1" d="M334.38,64.81V28.38h7.46v5.47H343a11.06,11.06,0,0,1,3.7-4.14q2.65-1.92,7.91-1.92A14.54,14.54,0,0,1,362,29.64,13.22,13.22,0,0,1,367,34.85a16.59,16.59,0,0,1,1.85,8.09V64.81h-7.61V43.53q0-4.72-2.37-7a9,9,0,0,0-6.5-2.26,9.79,9.79,0,0,0-7.58,3.11c-1.89,2.06-2.84,5.07-2.84,9v18.4Z"/><path class="cls-1" d="M379.82,64.81V28.38h7.47v5.47h1.18a11,11,0,0,1,3.7-4.14q2.65-1.92,7.9-1.92a14.49,14.49,0,0,1,7.35,1.85,13.24,13.24,0,0,1,5.07,5.21,16.59,16.59,0,0,1,1.84,8.09V64.81h-7.61V43.53q0-4.72-2.36-7a9,9,0,0,0-6.51-2.26,9.78,9.78,0,0,0-7.57,3.11c-1.9,2.06-2.84,5.07-2.84,9v18.4Z"/><path class="cls-1" d="M442,65.85a19.45,19.45,0,0,1-9.68-2.33,16.52,16.52,0,0,1-6.47-6.58,20.21,20.21,0,0,1-2.32-9.86v-.89a20.61,20.61,0,0,1,2.29-9.94,16.26,16.26,0,0,1,6.39-6.58,18.9,18.9,0,0,1,9.49-2.32,17.85,17.85,0,0,1,9.21,2.32A16.26,16.26,0,0,1,457,36.14a20.19,20.19,0,0,1,2.22,9.68V48.7h-28a10.39,10.39,0,0,0,3.22,7.65,10.79,10.79,0,0,0,7.65,2.85c2.85,0,5-.64,6.46-1.93A13.46,13.46,0,0,0,452,52.84l6.28,3.25a21.63,21.63,0,0,1-3,4.36,15.49,15.49,0,0,1-5.13,3.84A18.46,18.46,0,0,1,442,65.85Zm-10.64-23H451.5a9,9,0,0,0-2.95-6.46,10.19,10.19,0,0,0-6.95-2.33,10.31,10.31,0,0,0-7,2.33A10,10,0,0,0,431.33,42.86Z"/><path class="cls-1" d="M485.35,65.85a20.2,20.2,0,0,1-9.5-2.22,16.56,16.56,0,0,1-6.72-6.43,19.64,19.64,0,0,1-2.48-10.12v-1A19.43,19.43,0,0,1,469.13,36a16.89,16.89,0,0,1,6.72-6.43,20,20,0,0,1,9.5-2.25,19.17,19.17,0,0,1,8.94,1.92,16.45,16.45,0,0,1,5.95,5.1,17.08,17.08,0,0,1,2.92,7l-7.39,1.55a12.41,12.41,0,0,0-1.55-4.44,8.62,8.62,0,0,0-3.33-3.17,11.05,11.05,0,0,0-5.39-1.19,11.35,11.35,0,0,0-5.73,1.45,10.41,10.41,0,0,0-4,4.13,13.51,13.51,0,0,0-1.48,6.54v.67a13.75,13.75,0,0,0,1.48,6.58,10,10,0,0,0,4,4.13,11.64,11.64,0,0,0,5.73,1.41q4.8,0,7.31-2.48A11.25,11.25,0,0,0,496,50.25l7.39,1.7a19.69,19.69,0,0,1-3.14,6.95A16.07,16.07,0,0,1,494.29,64,19.42,19.42,0,0,1,485.35,65.85Z"/><path class="cls-1" d="M525.84,64.81a7.06,7.06,0,0,1-5.28-2,7.26,7.26,0,0,1-2-5.32V34.81H508.55V28.38H518.6v-12h7.61v12h10.87v6.43H526.21V56.17c0,1.47.69,2.21,2.07,2.21h7.61v6.43Z"/><path class="cls-2" d="M25,63.85a24.5,24.5,0,0,1-10.34-2.07,16,16,0,0,1-7.06-6.1,17.93,17.93,0,0,1-2.55-9.79V44H13v1.85q0,5.47,3.28,8.2A13.24,13.24,0,0,0,25,56.83q5.55,0,8.35-2.33a7.47,7.47,0,0,0,2.81-6,5.88,5.88,0,0,0-1.33-4A9.07,9.07,0,0,0,31.07,42a49.33,49.33,0,0,0-5.84-1.74l-2.73-.66a43.94,43.94,0,0,1-8.61-2.92,14,14,0,0,1-5.65-4.62,12.69,12.69,0,0,1-2-7.39,13.43,13.43,0,0,1,2.25-7.83,14.72,14.72,0,0,1,6.25-5,23,23,0,0,1,9.38-1.77,24,24,0,0,1,9.65,1.85,15.12,15.12,0,0,1,6.69,5.47,15.94,15.94,0,0,1,2.43,9.08v2.66H35V26.45a9.64,9.64,0,0,0-1.37-5.39,7.88,7.88,0,0,0-3.81-3,15.45,15.45,0,0,0-5.69-1q-4.73,0-7.35,2a6.38,6.38,0,0,0-2.62,5.43,6.27,6.27,0,0,0,1.14,3.88,8.21,8.21,0,0,0,3.37,2.47,29.86,29.86,0,0,0,5.54,1.7l2.73.67A45.8,45.8,0,0,1,35.8,36a15.28,15.28,0,0,1,6.06,4.7,12.32,12.32,0,0,1,2.22,7.61,14.29,14.29,0,0,1-2.33,8.13,15.52,15.52,0,0,1-6.62,5.43A24.23,24.23,0,0,1,25,63.85Z"/><path class="cls-2" d="M66.32,62.81a7.08,7.08,0,0,1-5.29-2,7.29,7.29,0,0,1-2-5.32V32.81H49V26.38h10v-12h7.61v12H77.55v6.43H66.69V54.17c0,1.47.69,2.21,2.07,2.21h7.61v6.43Z"/><path class="cls-2" d="M100.46,63.48a14.72,14.72,0,0,1-7.39-1.85A13,13,0,0,1,88,56.38a16.78,16.78,0,0,1-1.85-8.13V26.38h7.61V47.74q0,4.73,2.37,7A9.14,9.14,0,0,0,102.67,57a9.63,9.63,0,0,0,7.51-3.14q2.83-3.13,2.84-9V26.38h7.61V62.81h-7.46V57.34H112a11.38,11.38,0,0,1-3.7,4.18C106.52,62.82,103.91,63.48,100.46,63.48Z"/><path class="cls-2" d="M146.94,63.85a16.33,16.33,0,0,1-14.52-8.61,20.48,20.48,0,0,1-2.33-10.09V44a20.72,20.72,0,0,1,2.29-10,16.12,16.12,0,0,1,6.13-6.43,16.56,16.56,0,0,1,8.43-2.21,17.37,17.37,0,0,1,5.95.88,12.38,12.38,0,0,1,4,2.26,10.88,10.88,0,0,1,2.37,2.84h1.18V11.08H168V62.81h-7.46V57.64h-1.19a13.6,13.6,0,0,1-4.25,4.28Q152.27,63.86,146.94,63.85Zm2.14-6.65A11.15,11.15,0,0,0,157.25,54q3.21-3.18,3.21-9.09v-.67q0-5.84-3.18-9a12,12,0,0,0-16.29,0q-3.21,3.18-3.21,9v.67q0,5.91,3.21,9.09A11,11,0,0,0,149.08,57.2Z"/><path class="cls-2" d="M183.44,77.59V70.94h20.32q2.07,0,2.07-2.22V57.49h-1.18a9.7,9.7,0,0,1-2,2.85A10.37,10.37,0,0,1,199,62.59a16.14,16.14,0,0,1-5.76.89,14.72,14.72,0,0,1-7.39-1.85,13,13,0,0,1-5.1-5.25,16.62,16.62,0,0,1-1.85-8.05V26.38h7.61V47.74q0,4.73,2.37,7A9.14,9.14,0,0,0,195.41,57a9.67,9.67,0,0,0,7.5-3.1c1.9-2.07,2.85-5.07,2.85-9V26.38h7.61V70.27a7.27,7.27,0,0,1-2,5.33,7.14,7.14,0,0,1-5.35,2Z"/><path class="cls-2" d="M262.44,63.85q-9.47,0-15-5.36T241.9,43V30.89q0-10.12,5.54-15.48t15-5.36q9.31,0,14.37,5.17t5.06,14.12v.44H274v-.67a12.72,12.72,0,0,0-2.85-8.57q-2.85-3.32-8.68-3.32T253.2,20.8q-3.33,3.59-3.32,9.94V43.15q0,6.29,3.32,9.91t9.24,3.62q5.83,0,8.68-3.36A12.77,12.77,0,0,0,274,44.78V43.52h7.9v1q0,8.94-5.06,14.11T262.44,63.85Z"/><path class="cls-2" d="M308,63.85a20.5,20.5,0,0,1-9.72-2.26,16.54,16.54,0,0,1-6.68-6.46,19.55,19.55,0,0,1-2.44-10V44a19.35,19.35,0,0,1,2.44-9.94,16.81,16.81,0,0,1,6.68-6.46,21.86,21.86,0,0,1,19.48,0,16.84,16.84,0,0,1,6.72,6.46A19.35,19.35,0,0,1,327,44v1.11a19.55,19.55,0,0,1-2.44,10,16.58,16.58,0,0,1-6.72,6.46A20.69,20.69,0,0,1,308,63.85Zm0-6.8a10.91,10.91,0,0,0,8.17-3.22q3.14-3.21,3.14-8.9v-.67q0-5.68-3.11-8.9a11.91,11.91,0,0,0-16.29,0q-3.13,3.21-3.14,8.9v.67q0,5.68,3.14,8.9A10.79,10.79,0,0,0,308,57.05Z"/><path class="cls-2" d="M336.41,62.81V26.38h7.46v5.47h1.18a11,11,0,0,1,3.7-4.14q2.65-1.92,7.91-1.92A14.54,14.54,0,0,1,364,27.64a13.22,13.22,0,0,1,5.06,5.21,16.59,16.59,0,0,1,1.85,8.09V62.81h-7.61V41.53q0-4.72-2.37-7a9,9,0,0,0-6.5-2.26,9.79,9.79,0,0,0-7.58,3.11c-1.89,2.06-2.84,5.07-2.84,9v18.4Z"/><path class="cls-2" d="M381.85,62.81V26.38h7.47v5.47h1.18a11,11,0,0,1,3.69-4.14c1.78-1.28,4.41-1.92,7.91-1.92a14.49,14.49,0,0,1,7.35,1.85,13.24,13.24,0,0,1,5.07,5.21,16.59,16.59,0,0,1,1.84,8.09V62.81h-7.61V41.53q0-4.72-2.36-7a9,9,0,0,0-6.51-2.26,9.78,9.78,0,0,0-7.57,3.11c-1.9,2.06-2.85,5.07-2.85,9v18.4Z"/><path class="cls-2" d="M444,63.85a19.43,19.43,0,0,1-9.68-2.33,16.52,16.52,0,0,1-6.47-6.58,20.21,20.21,0,0,1-2.32-9.86v-.89a20.61,20.61,0,0,1,2.29-9.94,16.26,16.26,0,0,1,6.39-6.58,18.9,18.9,0,0,1,9.49-2.32,17.79,17.79,0,0,1,9.2,2.32,16.22,16.22,0,0,1,6.17,6.47,20.19,20.19,0,0,1,2.22,9.68V46.7h-28a10.39,10.39,0,0,0,3.22,7.65,10.79,10.79,0,0,0,7.65,2.85c2.85,0,5-.64,6.46-1.93A13.46,13.46,0,0,0,454,50.84l6.28,3.25a21.63,21.63,0,0,1-3,4.36,15.49,15.49,0,0,1-5.13,3.84A18.46,18.46,0,0,1,444,63.85Zm-10.64-23h20.17a9.07,9.07,0,0,0-2.95-6.46,11.58,11.58,0,0,0-13.93,0A10,10,0,0,0,433.36,40.86Z"/><path class="cls-2" d="M487.38,63.85a20.2,20.2,0,0,1-9.5-2.22,16.56,16.56,0,0,1-6.72-6.43,19.64,19.64,0,0,1-2.48-10.12v-1A19.43,19.43,0,0,1,471.16,34a16.89,16.89,0,0,1,6.72-6.43,20,20,0,0,1,9.5-2.25,19.2,19.2,0,0,1,8.94,1.92,16.53,16.53,0,0,1,5.95,5.1,17.08,17.08,0,0,1,2.92,7l-7.39,1.55a12.41,12.41,0,0,0-1.55-4.44,8.62,8.62,0,0,0-3.33-3.17,11.05,11.05,0,0,0-5.39-1.19,11.35,11.35,0,0,0-5.73,1.45,10.41,10.41,0,0,0-4,4.13,13.51,13.51,0,0,0-1.48,6.54v.67a13.75,13.75,0,0,0,1.48,6.58,10,10,0,0,0,4,4.13,11.64,11.64,0,0,0,5.73,1.41q4.8,0,7.31-2.48A11.31,11.31,0,0,0,498,48.25l7.39,1.7a19.69,19.69,0,0,1-3.14,6.95A16.15,16.15,0,0,1,496.32,62,19.45,19.45,0,0,1,487.38,63.85Z"/><path class="cls-2" d="M527.87,62.81a7.06,7.06,0,0,1-5.28-2,7.26,7.26,0,0,1-2-5.32V32.81H510.58V26.38h10.05v-12h7.61v12H539.1v6.43H528.24V54.17c0,1.47.69,2.21,2.07,2.21h7.61v6.43Z"/>
</svg>